<svg width="24" height="24" viewBox="0 0 24 24" fill="none" xmlns="http://www.w3.org/2000/svg">
<path d="M11.5 8C11.7764 8 12 8.1565 12 8.35C12 8.6125 11.5 9 11.5 9C11.5 9 11 8.6125 11 8.35C11 8.1565 11.2236 8 11.5 8ZM11.8571 8.35C11.8571 8.212 11.6971 8.1 11.5 8.1C11.3029 8.1 11.1429 8.212 11.1429 8.35C11.1429 8.494 11.3486 8.7095 11.5 8.844C11.6486 8.7105 11.8571 8.4925 11.8571 8.35Z" fill="#F06540"/>
<path d="M11.5 8.475C11.4014 8.475 11.3214 8.41904 11.3214 8.35C11.3214 8.28096 11.4014 8.225 11.5 8.225C11.5986 8.225 11.6786 8.28096 11.6786 8.35C11.6786 8.41904 11.5986 8.475 11.5 8.475Z" fill="#F06540"/>
</svg>
