<svg width="196" height="209" viewBox="0 0 196 209" fill="none" xmlns="http://www.w3.org/2000/svg">
<rect width="196" height="209" fill="#C14141" fill-opacity="0.02"/>
<path d="M81.7483 180.785C81.7483 190.364 89.0167 198.115 98 198.115C106.983 198.115 114.252 190.364 114.252 180.785H81.7483ZM98 50.0729C120.54 50.0729 138.833 69.5796 138.833 93.6146V154.573H57.1667V93.6146C57.1667 69.5796 75.46 50.0729 98 50.0729ZM98 10.8854C91.2217 10.8854 85.75 16.72 85.75 23.9479V34.1367C60.1067 40.0583 40.8333 64.4417 40.8333 93.6146V145.865L24.5 163.281V171.99H171.5V163.281L155.167 145.865V93.6146C155.167 64.4417 135.893 40.0583 110.25 34.1367V23.9479C110.25 16.72 104.778 10.8854 98 10.8854ZM89.8333 67.4896H106.167V102.323H89.8333V67.4896ZM89.8333 119.74H106.167V137.156H89.8333V119.74Z" fill="white"/>
<path d="M47 78.8665V158H141.981C141.981 158 148.774 129.924 141.981 78.8665C135.188 27.8086 76.2205 31.6512 47 78.8665Z" fill="white" stroke="white"/>
</svg>
