<svg width="163" height="50" viewBox="0 0 163 50" fill="none" xmlns="http://www.w3.org/2000/svg">
<path d="M42.982 30.3V33H34.202V18.43H37.582V30.3H42.982ZM48.1098 33H44.7098V18.43H48.1098V33ZM61.3908 21.11H57.2908V33H53.9108V21.11H49.8108V18.43H61.3908V21.11ZM73.5783 21.11H69.4783V33H66.0983V21.11H61.9983V18.43H73.5783V21.11ZM84.0758 30.3V33H75.2958V18.43H78.6758V30.3H84.0758ZM89.2036 21.03V24.43H93.7836V26.93H89.2036V30.4H95.1836V33H85.8036V18.43H95.1836V21.03H89.2036ZM110.488 25.71C110.488 26.7633 110.305 27.7367 109.938 28.63C109.578 29.5167 109.068 30.2867 108.408 30.94C107.748 31.5867 106.952 32.0933 106.018 32.46C105.092 32.82 104.062 33 102.928 33H97.2684V18.43H102.928C104.062 18.43 105.092 18.6133 106.018 18.98C106.952 19.3467 107.748 19.8533 108.408 20.5C109.068 21.1467 109.578 21.9167 109.938 22.81C110.305 23.6967 110.488 24.6633 110.488 25.71ZM107.028 25.71C107.028 24.99 106.935 24.34 106.748 23.76C106.562 23.18 106.292 22.69 105.938 22.29C105.592 21.8833 105.165 21.5733 104.658 21.36C104.152 21.14 103.575 21.03 102.928 21.03H100.668V30.4H102.928C103.575 30.4 104.152 30.2933 104.658 30.08C105.165 29.86 105.592 29.55 105.938 29.15C106.292 28.7433 106.562 28.25 106.748 27.67C106.935 27.09 107.028 26.4367 107.028 25.71ZM117.223 25.28C117.683 25.28 118.073 25.2233 118.393 25.11C118.72 24.99 118.987 24.8267 119.193 24.62C119.4 24.4133 119.55 24.1733 119.643 23.9C119.737 23.62 119.783 23.32 119.783 23C119.783 22.36 119.573 21.86 119.153 21.5C118.74 21.14 118.097 20.96 117.223 20.96H115.863V25.28H117.223ZM124.403 33H121.343C120.777 33 120.37 32.7867 120.123 32.36L117.703 28.13C117.59 27.95 117.463 27.82 117.323 27.74C117.183 27.6533 116.983 27.61 116.723 27.61H115.863V33H112.483V18.43H117.223C118.277 18.43 119.173 18.54 119.913 18.76C120.66 18.9733 121.267 19.2733 121.733 19.66C122.207 20.0467 122.55 20.5033 122.763 21.03C122.977 21.5567 123.083 22.13 123.083 22.75C123.083 23.2233 123.02 23.67 122.893 24.09C122.767 24.51 122.58 24.9 122.333 25.26C122.087 25.6133 121.78 25.93 121.413 26.21C121.053 26.49 120.637 26.72 120.163 26.9C120.383 27.0133 120.59 27.1567 120.783 27.33C120.977 27.4967 121.15 27.6967 121.303 27.93L124.403 33ZM139.674 25.71C139.674 26.7633 139.491 27.7433 139.124 28.65C138.764 29.5567 138.254 30.3467 137.594 31.02C136.934 31.6867 136.137 32.21 135.204 32.59C134.277 32.97 133.247 33.16 132.114 33.16C130.981 33.16 129.947 32.97 129.014 32.59C128.081 32.21 127.281 31.6867 126.614 31.02C125.954 30.3467 125.441 29.5567 125.074 28.65C124.714 27.7433 124.534 26.7633 124.534 25.71C124.534 24.6567 124.714 23.6767 125.074 22.77C125.441 21.8633 125.954 21.0767 126.614 20.41C127.281 19.7433 128.081 19.22 129.014 18.84C129.947 18.46 130.981 18.27 132.114 18.27C133.247 18.27 134.277 18.4633 135.204 18.85C136.137 19.23 136.934 19.7533 137.594 20.42C138.254 21.0867 138.764 21.8733 139.124 22.78C139.491 23.6867 139.674 24.6633 139.674 25.71ZM136.214 25.71C136.214 24.99 136.121 24.3433 135.934 23.77C135.747 23.19 135.477 22.7 135.124 22.3C134.777 21.9 134.351 21.5933 133.844 21.38C133.337 21.1667 132.761 21.06 132.114 21.06C131.461 21.06 130.877 21.1667 130.364 21.38C129.857 21.5933 129.427 21.9 129.074 22.3C128.727 22.7 128.461 23.19 128.274 23.77C128.087 24.3433 127.994 24.99 127.994 25.71C127.994 26.4367 128.087 27.09 128.274 27.67C128.461 28.2433 128.727 28.73 129.074 29.13C129.427 29.53 129.857 29.8367 130.364 30.05C130.877 30.2567 131.461 30.36 132.114 30.36C132.761 30.36 133.337 30.2567 133.844 30.05C134.351 29.8367 134.777 29.53 135.124 29.13C135.477 28.73 135.747 28.2433 135.934 27.67C136.121 27.09 136.214 26.4367 136.214 25.71ZM146.803 25.58C147.683 25.58 148.316 25.37 148.703 24.95C149.09 24.53 149.283 23.9433 149.283 23.19C149.283 22.8567 149.233 22.5533 149.133 22.28C149.033 22.0067 148.88 21.7733 148.673 21.58C148.473 21.38 148.216 21.2267 147.903 21.12C147.596 21.0133 147.23 20.96 146.803 20.96H145.043V25.58H146.803ZM146.803 18.43C147.83 18.43 148.71 18.5533 149.443 18.8C150.183 19.04 150.79 19.3733 151.263 19.8C151.743 20.2267 152.096 20.73 152.323 21.31C152.55 21.89 152.663 22.5167 152.663 23.19C152.663 23.9167 152.546 24.5833 152.313 25.19C152.08 25.7967 151.723 26.3167 151.243 26.75C150.763 27.1833 150.153 27.5233 149.413 27.77C148.68 28.01 147.81 28.13 146.803 28.13H145.043V33H141.663V18.43H146.803Z" fill="#F06540"/>
<path fill-rule="evenodd" clip-rule="evenodd" d="M5.18954 11.25H0V38.75H5.18954L14.1533 38.75C33.4961 33.1147 24.5324 12.6024 14.1533 11.25H8.0202C8.0202 16.0762 11.0424 36.1874 12.1093 34.0726C12.222 34.2528 12.34 34.4185 12.464 34.5695C10.5644 34.9511 8.16531 34.898 5.18954 34.2418V11.25ZM12.464 34.5695C13.2216 35.4925 14.2005 35.8689 15.5342 35.6617C18.7083 35.1687 22.8676 30.1916 21.9118 24.5729C20.9559 18.9543 15.8273 13.935 12.6533 14.4281C9.4792 14.9212 9.28445 22.1054 10.2403 27.7241C10.7288 30.5953 11.2716 32.7337 12.1093 34.0726C12.3379 33.6193 12.4767 32.1451 12.4767 29.2806C12.4767 20.2794 11.5412 17.5192 10.7079 16.846C17.9628 16.3097 23.2205 32.4088 12.464 34.5695Z" fill="#F06540"/>
</svg>
