<svg width="60" height="60" viewBox="0 0 60 60" fill="none" xmlns="http://www.w3.org/2000/svg">
<path d="M30 15C32.75 15 35 17.25 35 20C35 22.75 32.75 25 30 25C27.25 25 25 22.75 25 20C25 17.25 27.25 15 30 15ZM30 37.5C36.75 37.5 44.5 40.725 45 42.5V45H15V42.525C15.5 40.725 23.25 37.5 30 37.5ZM30 10C24.475 10 20 14.475 20 20C20 25.525 24.475 30 30 30C35.525 30 40 25.525 40 20C40 14.475 35.525 10 30 10ZM30 32.5C23.325 32.5 10 35.85 10 42.5V50H50V42.5C50 35.85 36.675 32.5 30 32.5Z" fill="white"/>
</svg>
