<svg width="1156" height="812" viewBox="0 0 1156 812" fill="none" xmlns="http://www.w3.org/2000/svg">
<path d="M1153 791H1135V793H1153V791Z" fill="#F5F5F5"/>
<path d="M1153 807H1135V809H1153V807Z" fill="#F5F5F5"/>
<path d="M1153 799H1135V801H1153V799Z" fill="#F5F5F5"/>
<path d="M14.59 8L12 10.59L9.41 8L8 9.41L10.59 12L8 14.59L9.41 16L12 13.41L14.59 16L16 14.59L13.41 12L16 9.41L14.59 8ZM12 2C6.47 2 2 6.47 2 12C2 17.53 6.47 22 12 22C17.53 22 22 17.53 22 12C22 6.47 17.53 2 12 2ZM12 20C7.59 20 4 16.41 4 12C4 7.59 7.59 4 12 4C16.41 4 20 7.59 20 12C20 16.41 16.41 20 12 20Z" fill="#F5F5F5"/>
<path d="M115.755 178.255H114.965L114.685 177.985C115.665 176.845 116.255 175.365 116.255 173.755C116.255 170.165 113.345 167.255 109.755 167.255C106.165 167.255 103.255 170.165 103.255 173.755C103.255 177.345 106.165 180.255 109.755 180.255C111.365 180.255 112.845 179.665 113.985 178.685L114.255 178.965V179.755L119.255 184.745L120.745 183.255L115.755 178.255ZM109.755 178.255C107.265 178.255 105.255 176.245 105.255 173.755C105.255 171.265 107.265 169.255 109.755 169.255C112.245 169.255 114.255 171.265 114.255 173.755C114.255 176.245 112.245 178.255 109.755 178.255Z" fill="white"/>
</svg>
