<svg width="27" height="26" viewBox="0 0 27 26" fill="none" xmlns="http://www.w3.org/2000/svg">
<rect width="27" height="26" fill="#C14141" fill-opacity="0.02"/>
<path fill-rule="evenodd" clip-rule="evenodd" d="M5.48578 6.48499e-05H0V26H5.48578L14.9612 26C35.4082 20.6721 25.9328 1.27872 14.9612 6.48499e-05H8.47802C8.47802 4.56326 11.6731 23.579 12.8006 21.5775C12.9199 21.7479 13.0448 21.9046 13.1759 22.0475C11.1678 22.4084 8.63163 22.3582 5.48578 21.7377V6.48499e-05ZM13.1759 22.0475C13.9767 22.9198 15.0113 23.2756 16.421 23.0797C19.7762 22.6135 24.173 17.908 23.1626 12.5958C22.1521 7.2836 16.7308 2.53812 13.3756 3.00429C10.0203 3.47047 9.81444 10.2628 10.8249 15.575C11.3413 18.2898 11.9151 20.3116 12.8006 21.5775C13.0423 21.1486 13.1889 19.7548 13.1889 17.0472C13.1889 8.53698 12.2001 5.92729 11.3192 5.2908C18.9881 4.78374 24.5458 20.0043 13.1759 22.0475Z" fill="#F06540"/>
</svg>
