<svg width="163" height="50" viewBox="0 0 163 50" fill="none" xmlns="http://www.w3.org/2000/svg">
<rect width="163" height="50" fill="#C14141" fill-opacity="0.02"/>
<path fill-rule="evenodd" clip-rule="evenodd" d="M5.18954 11.25H0V38.75H5.18954L14.1533 38.75C33.4961 33.1147 24.5324 12.6024 14.1533 11.25H8.0202C8.0202 16.0762 11.0424 36.1874 12.1093 34.0726C12.222 34.2528 12.34 34.4185 12.464 34.5695C10.5644 34.9511 8.16531 34.898 5.18954 34.2417V11.25ZM12.464 34.5695C13.2216 35.4925 14.2005 35.8689 15.5342 35.6617C18.7083 35.1687 22.8676 30.1916 21.9118 24.5729C20.9559 18.9543 15.8273 13.935 12.6533 14.4281C9.4792 14.9212 9.28445 22.1054 10.2403 27.7241C10.7288 30.5953 11.2716 32.7337 12.1093 34.0726C12.3379 33.6193 12.4767 32.1451 12.4767 29.2806C12.4767 20.2794 11.5412 17.5192 10.7079 16.846C17.9628 16.3097 23.2205 32.4088 12.464 34.5695Z" fill="#F06540"/>
</svg>
